<svg clip-rule="evenodd" fill-rule="evenodd" stroke-linejoin="round" stroke-miterlimit="2" viewBox="0 0 24 24" xmlns="http://www.w3.org/2000/svg" xmlns:xlink="http://www.w3.org/1999/xlink"><clipPath id="a"><path clip-rule="evenodd" d="m0 0h24v24h-24z"/></clipPath><path d="m0 0h24v24h-24z" fill="none"/><g clip-path="url(#a)"><path d="m24 6c0-2.209-1.791-4-4-4-4.202 0-11.798 0-16 0-2.209 0-4 1.791-4 4v12c0 2.209 1.791 4 4 4h16c2.209 0 4-1.791 4-4zm-9.5 7.914-.379.379c-.562.562-1.325.879-2.121.879s-1.559-.317-2.121-.879l-.379-.379-6.016 6.016c.164.047.337.07.516.07h16c.179 0 .352-.023.516-.07zm-12.5-7.5 6.086 6.086-6.016 6.016c-.047-.164-.07-.337-.07-.516zm20 0v11.586c0 .179-.023.352-.07.516l-6.016-6.016zm-.81-2.019c-.331-.249-.744-.395-1.19-.395h-16c-.447 0-.859.146-1.19.395l8.483 8.484c.187.187.442.293.707.293s.52-.106.707-.293z"/></g></svg>