<?xml version="1.0" encoding="utf-8"?>
<svg xmlns="http://www.w3.org/2000/svg" xmlns:xlink="http://www.w3.org/1999/xlink">
  <symbol viewBox="0 0 24 24" fill="currentColor" id="facebook" xmlns="http://www.w3.org/2000/svg">
    <path d="M24 12C24 5.37258 18.6274 0 12 0C5.37258 0 0 5.37258 0 12C0 17.9895 4.38823 22.954 10.125 23.8542V15.4688H7.07812V12H10.125V9.35625C10.125 6.34875 11.9165 4.6875 14.6576 4.6875C15.9705 4.6875 17.3438 4.92188 17.3438 4.92188V7.875H15.8306C14.3399 7.875 13.875 8.80001 13.875 9.74899V12H17.2031L16.6711 15.4688H13.875V23.8542C19.6118 22.954 24 17.9895 24 12Z"/>
  </symbol>

  <symbol viewBox="0 0 24 24" fill="currentColor" id="instagram" xmlns="http://www.w3.org/2000/svg">
    <path fill-rule="evenodd" clip-rule="evenodd" d="M12 0C8.74088 0 8.3325 0.013875 7.05225 0.072375C5.775 0.1305 4.90275 0.333375 4.13962 0.63C3.35025 0.93675 2.68125 1.347 2.01412 2.01412C1.347 2.68125 0.93675 3.35062 0.63 4.13962C0.333375 4.90275 0.1305 5.775 0.072 7.05225C0.013875 8.3325 0 8.74088 0 12C0 15.2591 0.013875 15.6675 0.072 16.9478C0.1305 18.225 0.333375 19.0972 0.63 19.8604C0.93675 20.6494 1.347 21.3188 2.01412 21.9859C2.68125 22.653 3.35025 23.0632 4.13962 23.37C4.90275 23.6666 5.775 23.8695 7.05225 23.9276C8.3325 23.9861 8.74088 24 12 24C15.2591 24 15.6675 23.9861 16.9478 23.9276C18.225 23.8695 19.0972 23.6666 19.8604 23.37C20.6494 23.0632 21.3188 22.653 21.9859 21.9859C22.653 21.3188 23.0632 20.6494 23.37 19.8604C23.6666 19.0972 23.8695 18.225 23.9276 16.9478C23.9861 15.6675 24 15.2591 24 12C24 8.74088 23.9861 8.3325 23.9276 7.05225C23.8695 5.775 23.6666 4.90275 23.37 4.13962C23.0632 3.35062 22.653 2.68125 21.9859 2.01412C21.3188 1.347 20.6494 0.93675 19.8604 0.63C19.0972 0.333375 18.225 0.1305 16.9478 0.072375C15.6675 0.013875 15.2591 0 12 0V0ZM12 2.16225C15.204 2.16225 15.5835 2.17425 16.8491 2.232C18.0191 2.28563 18.6544 2.481 19.0774 2.64525C19.6373 2.86312 20.037 3.123 20.457 3.543C20.877 3.963 21.1369 4.36275 21.3547 4.92262C21.519 5.34562 21.7144 5.98088 21.768 7.15088C21.8258 8.4165 21.8378 8.796 21.8378 12C21.8378 15.204 21.8258 15.5835 21.768 16.8491C21.7144 18.0191 21.519 18.6544 21.3547 19.0774C21.1369 19.6373 20.877 20.037 20.457 20.457C20.037 20.877 19.6373 21.1369 19.0774 21.3547C18.6544 21.519 18.0191 21.7144 16.8491 21.768C15.5839 21.8258 15.2044 21.8378 12 21.8378C8.79562 21.8378 8.41613 21.8258 7.15088 21.768C5.98088 21.7144 5.34562 21.519 4.92262 21.3547C4.36275 21.1369 3.963 20.877 3.543 20.457C3.123 20.037 2.86312 19.6373 2.64525 19.0774C2.481 18.6544 2.28563 18.0191 2.232 16.8491C2.17425 15.5835 2.16225 15.204 2.16225 12C2.16225 8.796 2.17425 8.4165 2.232 7.15088C2.28563 5.98088 2.481 5.34562 2.64525 4.92262C2.86312 4.36275 3.123 3.963 3.543 3.543C3.963 3.123 4.36275 2.86312 4.92262 2.64525C5.34562 2.481 5.98088 2.28563 7.15088 2.232C8.4165 2.17425 8.796 2.16225 12 2.16225V2.16225ZM12 5.838C8.59688 5.838 5.838 8.59688 5.838 12C5.838 15.4031 8.59688 18.162 12 18.162C15.4031 18.162 18.162 15.4031 18.162 12C18.162 8.59688 15.4031 5.838 12 5.838V5.838ZM12 16.0001C9.79088 16.0001 7.99988 14.2091 7.99988 12C7.99988 9.79088 9.79088 7.99988 12 7.99988C14.2091 7.99988 16.0001 9.79088 16.0001 12C16.0001 14.2091 14.2091 16.0001 12 16.0001ZM19.8458 5.59425C19.8458 6.38963 19.2008 7.03425 18.4058 7.03425C17.6104 7.03425 16.9658 6.38963 16.9658 5.59425C16.9658 4.79925 17.6104 4.15425 18.4058 4.15425C19.2008 4.15425 19.8458 4.79925 19.8458 5.59425Z"/>
  </symbol>

  <symbol viewBox="0 0 24 24" fill="currentColor" id="mail" xmlns="http://www.w3.org/2000/svg">
    <path clip-rule="evenodd" d="m9.20693 13.2676-.20693-.2069-7.52364 7.5236c.05285.0311.10676.0607.16167.0887.64173.327 1.48181.327 3.16197.327h14.4c1.6802 0 2.5202 0 3.162-.327.0549-.028.1088-.0576.1616-.0887l-7.5236-7.5236-.2069.2069-.0215.0215h-.0001c-.3777.3777-.6929.693-.9715.9295-.2906.2467-.5902.4514-.9502.5684-.5523.1794-1.1473.1794-1.6996 0-.36-.117-.6596-.3217-.9502-.5684-.2786-.2365-.59386-.5518-.97157-.9295zm14.37737 6.256c.0311-.0528.0607-.1067.0887-.1616.327-.6418.327-1.4818.327-3.162v-8.4c0-1.68016 0-2.52024-.327-3.16197-.028-.05491-.0576-.10881-.0887-.16166l-7.5236 7.52363zm-1.0607-16.10789-8.7912 8.79119c-.4048.4048-.6768.6761-.9032.8682-.2196.1864-.3463.2539-.4429.2853-.2511.0816-.5215.0816-.7726 0-.0966-.0314-.2233-.0989-.4429-.2853-.2263-.1921-.4984-.4634-.9032-.8682l-8.79123-8.79119c.05285-.03116.10675-.06075.16166-.08873.64173-.32698 1.48181-.32698 3.16197-.32698h14.4c1.6802 0 2.5202 0 3.162.32698.0549.02798.1088.05757.1616.08873zm-22.107889 1.06066c-.031158.05284-.060755.10675-.088731.16166-.32698.64173-.32698 1.48181-.32698 3.16197v8.4c0 1.6802 0 2.5202.32698 3.162.027975.0549.057571.1088.088727.1616l7.523633-7.5236z" fill-rule="evenodd"/>
  </symbol>
</svg>

</svg>